<svg width="800" height="600" xmlns="http://www.w3.org/2000/svg">
 <!-- Created with Method Draw - http://github.com/duopixel/Method-Draw/ -->
 <defs>
  <linearGradient y2="0" y1="1" x2="0.5" x1="0.5" id="svg_13">
   <stop stop-color="#5558ff" offset="0"/>
   <stop stop-color="#00c0ff" offset="1"/>
  </linearGradient>
 </defs>
 <g>
  <title>background</title>
  <rect fill="#fff" id="canvas_background" height="602" width="802" y="-1" x="-1"/>
  <g display="none" overflow="visible" y="0" x="0" height="100%" width="100%" id="canvasGrid">
   <rect fill="url(#gridpattern)" stroke-width="0" y="0" x="0" height="100%" width="100%"/>
  </g>
 </g>
 <g>
  <title>Layer 1</title>
  <linearGradient y2="0" y1="1" x2="0.5" x1="0.5" id="svg_5">
   <stop stop-color="#5558ff" offset="0"/>
   <stop stop-color="#00c0ff" offset="1"/>
  </linearGradient>
  <g fill="url(#svg_5)" id="svg_10">
   <g transform="matrix(0.152587890625,0,0,0.152587890625,0,0) " id="svg_7">
    <g id="svg_8">
     <path id="svg_9" fill="url(#svg_5)" d="m2867.43994,2011.07996c0,-8.613 -2.437,-16.666 -6.651,-23.514c10.151,-8.258 16.651,-20.839 16.651,-34.914c0,-25.245 -20.607,-46.572 -45,-46.572l-76,0l0,-75c0,-41.355 -33.645,-75 -75,-75c-8.284,0 -15,6.716 -15,15l0,81.972l-58.359,38.906c-15.566,10.378 -26.205,26.248 -30.049,44.122l-31.592,0l0,-15c0,-8.284 -6.716,-15 -15,-15l-151,0c-8.284,0 -15,6.716 -15,15l0,240c0,8.284 6.716,15 15,15l151,0c8.284,0 15,-6.716 15,-15l0,-15l39.026,0c21.573,19.394 49.171,30 78.4,30l138.574,0c24.813,0 45,-20.187 45,-45c0,-9.057 -2.699,-17.491 -7.321,-24.559c10.532,-8.243 17.321,-21.06 17.321,-35.441c0,-9.057 -2.699,-17.491 -7.321,-24.559c10.532,-8.243 17.321,-21.06 17.321,-35.441zm-351,135l-121,0l0,-210l121,0l0,210zm322.678,-180l-16.678,0c-8.284,0 -15,6.716 -15,15s6.716,15 15,15c8.271,0 15,6.729 15,15s-6.729,15 -15,15c-1.252,0 -7.836,0 -10,0c-8.284,0 -15,6.716 -15,15s6.716,15 15,15c8.271,0 15,6.729 15,15s-6.729,15 -15,15c-1.252,0 -7.836,0 -10,0c-8.284,0 -15,6.716 -15,15s6.716,15 15,15c8.271,0 15,6.729 15,15s-6.729,15 -15,15l-138.574,0c-23.352,0 -45.307,-9.094 -61.82,-25.607c-2.813,-2.813 -6.628,-4.393 -10.606,-4.393l-45,0l0,-150l45,0c8.284,0 15,-6.716 15,-15c0,-13.758 6.834,-26.528 18.282,-34.16l65.039,-43.359c4.173,-2.782 6.68,-7.466 6.68,-12.481l0,-72.43c17.461,6.191 30,22.874 30,42.43l0,90c0,8.284 6.716,15 15,15l91,0c7.851,0 15,7.898 15,16.572c-0.001,5.873 -3.394,10.968 -8.323,13.428zm-367.678,30c8.284,0 15,-6.716 15,-15s-6.716,-15 -15,-15s-15,6.716 -15,15s6.716,15 15,15z"/>
    </g>
   </g>
  </g>
  <rect stroke="#000" id="svg_14" height="32.32324" width="18.78788" y="295.15152" x="365.25253" stroke-width="0" fill="url(#svg_13)"/>
  <path id="svg_15" d="m311.91919,275.35354" opacity="0.5" fill-opacity="null" stroke-opacity="null" stroke-width="0" stroke="#000" fill="url(#svg_13)"/>
  <path d="m414.14142,294.54544c0,0.20203 0,0.60608 0,1.0101c0,0.60608 0,1.21213 0,1.61618c0,0.80807 0,1.21213 0,1.61615c0,0.60608 0,1.21213 0,1.61618c0,0.60605 0,1.0101 0,1.61615c0,0.80807 -0.09824,1.37854 -0.20203,1.81818c-0.09283,0.39325 0.06473,0.81329 0,1.21213c-0.10233,0.63058 -0.50229,1.17651 -0.60605,1.61615c-0.09283,0.39325 -0.20203,0.80811 -0.40405,1.21213c-0.40405,0.80807 -0.60605,1.41415 -0.80807,1.81818l0,0.40405" id="svg_18" fill-opacity="null" stroke-opacity="null" stroke-width="0" stroke="#000" fill="none"/>
 </g>
</svg>